<svg xmlns="http://www.w3.org/2000/svg" width="280" height="76" viewBox="0 0 280 76" fill="none">
  <path d="M37.8383 37.9957C37.8383 39.5821 38.0435 41.1254 38.4624 42.5824L0 38.9268V37.0646L38.4624 33.409C38.052 34.866 37.8383 36.4179 37.8383 37.9957Z" fill="white"/>
  <path d="M16.2091 70.4132L88.466 66.3955V76L16.2091 71.9823V70.4132Z" fill="white"/>
  <path d="M16.2091 4.00908L88.466 0V9.59592L16.2091 5.58684V4.00908Z" fill="white"/>
  <path d="M6.26562 15.0793L88.4652 11.0616V20.6662L6.26562 16.6485V15.0793Z" fill="white"/>
  <path d="M6.26562 59.3429L88.4652 55.3339V64.9298L6.26562 60.9207V59.3429Z" fill="white"/>
  <path d="M54.9629 37.2025L88.4668 33.1934V42.7893L54.9629 38.7803V37.2025Z" fill="white"/>
  <path d="M54.9536 48.2813L88.4404 44.0826L88.4917 53.6785L54.9707 49.8505L54.9536 48.2813Z" fill="white"/>
  <path d="M46.2924 22.5974L1.46094 26.2099L1.47804 27.6411L39.5899 30.4086C41.0775 27.3393 43.4456 24.7873 46.3693 23.0716L46.2924 22.5974Z" fill="white"/>
  <path d="M45.8308 52.5922C43.0865 50.842 40.8637 48.3417 39.4788 45.35L1.46094 48.3417V49.7901L45.694 52.9457L45.8222 52.5922H45.8308Z" fill="white"/>
  <path d="M116.994 66.7145V52.7215H114.336V50.7558H121.833V52.7215H119.174V66.7145H116.994Z" fill="white"/>
  <path d="M128.903 66.7144C128.834 66.5075 128.791 66.3092 128.766 66.1282C128.74 65.904 128.723 65.4902 128.723 64.8953V61.9122C128.723 61.119 128.595 60.5672 128.321 60.231C128.048 59.8947 127.586 59.7223 126.945 59.7223H125.885V66.7144H123.705V50.7557H127.295C128.552 50.7557 129.467 51.0489 130.031 51.6265C130.595 52.2042 130.877 53.1095 130.877 54.3337V55.3338C130.877 56.9633 130.373 57.9548 129.33 58.3773L129.219 58.429L128.826 58.5756L129.347 58.7739C129.911 58.9463 130.305 59.2826 130.536 59.8171C130.775 60.3689 130.903 61.119 130.903 62.0501V64.9211C130.903 65.3953 130.92 65.7833 130.954 66.0678C130.98 66.2834 131.023 66.4989 131.1 66.7144H128.903ZM125.885 57.7565H126.996C127.552 57.7565 127.979 57.6013 128.27 57.3082C128.561 57.0065 128.706 56.5236 128.706 55.8511V54.5924C128.706 53.9544 128.595 53.4974 128.355 53.1957C128.108 52.8853 127.731 52.7301 127.227 52.7301H125.885V57.7652V57.7565Z" fill="white"/>
  <path d="M185.832 66.7144C185.764 66.5075 185.721 66.3092 185.696 66.1282C185.67 65.904 185.653 65.4902 185.653 64.8953V61.9122C185.653 61.119 185.525 60.5672 185.251 60.231C184.977 59.8947 184.516 59.7223 183.875 59.7223H182.814V66.7144H180.634V50.7557H184.225C185.482 50.7557 186.397 51.0489 186.961 51.6265C187.525 52.2042 187.807 53.1095 187.807 54.3337V55.3338C187.807 56.9633 187.303 57.9548 186.26 58.3773L186.149 58.429L185.755 58.5756L186.277 58.7739C186.841 58.9463 187.234 59.2826 187.465 59.8171C187.705 60.3689 187.833 61.119 187.833 62.0501V64.9211C187.833 65.3953 187.85 65.7833 187.884 66.0678C187.91 66.2834 187.952 66.4989 188.029 66.7144H185.832ZM182.814 57.7565H183.926C184.482 57.7565 184.909 57.6013 185.2 57.3082C185.49 57.0065 185.636 56.5236 185.636 55.8511V54.5924C185.636 53.9544 185.525 53.4974 185.285 53.1957C185.037 52.8853 184.661 52.7301 184.157 52.7301H182.814V57.7652V57.7565Z" fill="white"/>
  <path d="M138.778 66.7144L138.342 63.5158H135.111L134.649 66.7144H132.666L135.239 50.7557H138.377L140.95 66.7144H138.778ZM135.359 61.6708H138.069L136.889 53.2388H136.521L135.367 61.6708H135.359Z" fill="white"/>
  <path d="M203.263 66.7144L202.827 63.5158H199.595L199.133 66.7144H197.15L199.723 50.7557H202.861L205.434 66.7144H203.263ZM199.843 61.6708H202.553L201.373 53.2388H201.006L199.852 61.6708H199.843Z" fill="white"/>
  <path d="M148.173 66.7144L144.745 53.6785L144.754 66.7144H142.847V50.7557H145.711L148.558 61.6621V50.7557H150.465V66.7144H148.173Z" fill="white"/>
  <path d="M234.527 66.7145L231.099 53.6785L231.108 66.7145H229.201V50.7558H232.074L234.912 61.6622V50.7558H236.819V66.7145H234.527Z" fill="white"/>
  <path d="M156.124 66.9473C154.953 66.9473 154.056 66.611 153.466 65.9471C152.867 65.2833 152.568 64.2918 152.568 63.0244V62.2743H154.611V63.2141C154.611 64.6711 155.423 64.9815 156.107 64.9815C156.595 64.9815 156.971 64.8349 157.227 64.5332C157.484 64.24 157.612 63.7917 157.612 63.1623C157.612 62.4467 157.45 61.8087 157.125 61.2569C156.808 60.7224 156.219 60.0758 155.381 59.3343C154.355 58.4204 153.628 57.5841 153.226 56.8513C152.825 56.1271 152.628 55.2994 152.628 54.3855C152.628 53.1526 152.936 52.1783 153.551 51.5145C154.158 50.8506 155.064 50.5143 156.236 50.5143C157.407 50.5143 158.279 50.8506 158.86 51.5145C159.45 52.187 159.749 53.1698 159.749 54.4372V54.9286H157.706V54.2734C157.706 53.6699 157.586 53.2215 157.338 52.9284C157.091 52.6267 156.723 52.4801 156.253 52.4801C155.586 52.4801 154.799 52.7818 154.799 54.2303C154.799 54.851 154.97 55.4459 155.304 55.9805C155.629 56.515 156.201 57.1358 157.065 57.8859C158.108 58.7998 158.835 59.6361 159.219 60.3689C159.604 61.1018 159.801 61.9725 159.801 62.964C159.801 64.2487 159.484 65.2402 158.869 65.9213C158.253 66.5938 157.338 66.9386 156.15 66.9386L156.124 66.9473Z" fill="white"/>
  <path d="M161.877 66.7144V50.7557H165.442C166.647 50.7557 167.562 51.0834 168.152 51.7214C168.75 52.368 169.049 53.3422 169.049 54.601V56.2133C169.049 57.4806 168.75 58.4463 168.152 59.0929C167.562 59.7309 166.647 60.0585 165.442 60.0585H164.057V66.7058H161.877V66.7144ZM164.057 58.1014H165.442C165.912 58.1014 166.271 57.9635 166.51 57.6876C166.75 57.4203 166.869 56.9892 166.869 56.3771V54.4372C166.869 53.8251 166.75 53.394 166.51 53.1267C166.271 52.8508 165.903 52.7129 165.442 52.7129H164.057V58.1014Z" fill="white"/>
  <path d="M174.573 66.9473C173.384 66.9473 172.461 66.611 171.837 65.9299C171.213 65.2488 170.888 64.2745 170.888 63.0244V54.4458C170.888 53.1957 171.204 52.2128 171.837 51.5403C172.461 50.8678 173.384 50.523 174.573 50.523C175.761 50.523 176.684 50.8678 177.308 51.5403C177.932 52.2214 178.257 53.1957 178.257 54.4458V63.0244C178.257 64.2745 177.941 65.2574 177.308 65.9299C176.684 66.6024 175.769 66.9473 174.573 66.9473ZM174.573 52.4887C173.889 52.4887 173.076 52.7991 173.076 54.282V63.1882C173.076 64.6711 173.889 64.9815 174.573 64.9815C175.256 64.9815 176.069 64.6711 176.069 63.1882V54.282C176.069 52.7991 175.256 52.4887 174.573 52.4887Z" fill="white"/>
  <path d="M192.141 66.7145V52.7215H189.482V50.7558H196.98V52.7215H194.321V66.7145H192.141Z" fill="white"/>
  <path d="M208.256 66.7145V52.7215H205.597V50.7558H213.095V52.7215H210.436V66.7145H208.256Z" fill="white"/>
  <path d="M217.147 50.7557H214.966V66.7144H217.147V50.7557Z" fill="white"/>
  <path d="M223.174 66.9473C221.986 66.9473 221.063 66.611 220.438 65.9299C219.814 65.2488 219.489 64.2745 219.489 63.0244V54.4458C219.489 53.1957 219.806 52.2128 220.438 51.5403C221.063 50.8678 221.986 50.523 223.174 50.523C224.362 50.523 225.286 50.8678 225.91 51.5403C226.534 52.2214 226.859 53.1957 226.859 54.4458V63.0244C226.859 64.2745 226.542 65.2574 225.91 65.9299C225.286 66.6024 224.371 66.9473 223.174 66.9473ZM223.174 52.4887C222.49 52.4887 221.678 52.7991 221.678 54.282V63.1882C221.678 64.6711 222.49 64.9815 223.174 64.9815C223.858 64.9815 224.67 64.6711 224.67 63.1882V54.282C224.67 52.7991 223.858 52.4887 223.174 52.4887Z" fill="white"/>
  <path d="M144.248 27.0807V45.1431H125.885C117.113 45.1431 110.018 37.9871 110.018 29.1412C110.018 20.2954 117.156 13.0963 125.927 13.0963L144.24 13.1394V23.8217L125.927 23.7268C122.969 23.7268 120.559 26.2012 120.559 29.1412C120.559 32.0812 122.969 34.5039 125.927 34.5039H133.647V27.0807H144.248Z" fill="white"/>
  <path d="M171.461 45.1517H148.268V13.0532H158.86V34.4608H171.461V45.1517Z" fill="white"/>
  <path d="M280 13.0791V21.33H262.013V25.6839H279.59V32.564H262.013V36.918H280V45.1689H251.326V13.0791H280Z" fill="white"/>
  <path d="M243.828 28.417C245.88 27.279 247.393 24.6321 247.393 21.8128C247.393 14.9931 241.964 13.0532 237.108 13.0532H213.658V45.1431H237.134C242.212 45.1431 247.769 43.4791 247.769 35.9696C247.769 32.521 246.273 29.6154 243.819 28.417H243.828ZM224.439 20.9334H232.543C235.193 20.9334 235.279 22.5026 235.279 23.1664C235.279 23.8303 235.193 25.3994 232.5 25.3994H224.439V20.9334ZM233.338 36.8835H224.353V32.2106H233.295C236.117 32.2106 236.202 33.8142 236.202 34.547C236.202 35.2799 236.108 36.8835 233.338 36.8835Z" fill="white"/>
  <path d="M195.296 13.0963H187.96C179.189 13.0963 172.051 20.2954 172.051 29.1412C172.051 37.9871 179.146 45.1431 187.918 45.1431H195.253C204.024 45.1431 211.163 37.944 211.163 29.0981C211.163 20.2523 204.067 13.0963 195.296 13.0963ZM195.253 34.5039H187.96C185.002 34.5039 182.592 32.0726 182.592 29.1412C182.592 26.2099 185.002 23.7268 187.96 23.7268H195.253C198.211 23.7268 200.622 26.1581 200.622 29.0895C200.622 32.0209 198.211 34.5039 195.253 34.5039Z" fill="white"/>
</svg>