<svg width="140" height="38" viewBox="0 0 140 38" fill="none" xmlns="http://www.w3.org/2000/svg">
<g clip-path="url(#clip0_37_1409)">
<path d="M18.9191 18.9978C18.9191 19.791 19.0217 20.5627 19.2312 21.2912L0 19.4634V18.5323L19.2312 16.7045C19.026 17.433 18.9191 18.2089 18.9191 18.9978Z" fill="white"/>
<path d="M8.10449 35.2066L44.233 33.1977V38L8.10449 35.9911V35.2066Z" fill="white"/>
<path d="M8.10449 2.00454L44.233 0V4.79796L8.10449 2.79342V2.00454Z" fill="white"/>
<path d="M3.13281 7.53967L44.2326 5.53082V10.3331L3.13281 8.32424V7.53967Z" fill="white"/>
<path d="M3.13281 29.6715L44.2326 27.6669V32.4649L3.13281 30.4604V29.6715Z" fill="white"/>
<path d="M27.4814 18.6012L44.2334 16.5967V21.3947L27.4814 19.3901V18.6012Z" fill="white"/>
<path d="M27.4766 24.1407L44.22 22.0413L44.2456 26.8392L27.4851 24.9252L27.4766 24.1407Z" fill="white"/>
<path d="M23.1462 11.2987L0.730469 13.1049L0.739018 13.8205L19.795 15.2043C20.5387 13.6697 21.7228 12.3937 23.1847 11.5358L23.1462 11.2987Z" fill="white"/>
<path d="M22.9154 26.2961C21.5432 25.421 20.4319 24.1708 19.7394 22.675L0.730469 24.1708V24.8951L22.847 26.4728L22.9111 26.2961H22.9154Z" fill="white"/>
<path d="M58.4974 33.3572V26.3607H57.168V25.3779H60.9167V26.3607H59.5874V33.3572H58.4974Z" fill="white"/>
<path d="M64.4515 33.3572C64.4173 33.2538 64.3959 33.1546 64.3831 33.0641C64.3702 32.952 64.3617 32.7451 64.3617 32.4476V30.9561C64.3617 30.5595 64.2976 30.2836 64.1608 30.1155C64.024 29.9474 63.7932 29.8611 63.4726 29.8611H62.9426V33.3572H61.8525V25.3779H63.6478C64.2762 25.3779 64.7336 25.5244 65.0157 25.8133C65.2978 26.1021 65.4389 26.5547 65.4389 27.1669V27.6669C65.4389 28.4817 65.1867 28.9774 64.6652 29.1886L64.6096 29.2145L64.413 29.2878L64.6737 29.3869C64.9559 29.4732 65.1525 29.6413 65.2679 29.9086C65.3876 30.1844 65.4517 30.5595 65.4517 31.0251V32.4606C65.4517 32.6977 65.4603 32.8917 65.4774 33.0339C65.4902 33.1417 65.5116 33.2495 65.55 33.3572H64.4557H64.4515ZM62.9426 28.8783H63.4982C63.7761 28.8783 63.9898 28.8007 64.1351 28.6541C64.2805 28.5032 64.3532 28.2618 64.3532 27.9256V27.2962C64.3532 26.9772 64.2976 26.7487 64.1779 26.5978C64.0539 26.4426 63.8659 26.3651 63.6137 26.3651H62.9426V28.8826V28.8783Z" fill="white"/>
<path d="M92.9163 33.3572C92.8821 33.2538 92.8607 33.1546 92.8479 33.0641C92.8351 32.952 92.8265 32.7451 92.8265 32.4476V30.9561C92.8265 30.5595 92.7624 30.2836 92.6256 30.1155C92.4889 29.9474 92.258 29.8611 91.9374 29.8611H91.4074V33.3572H90.3174V25.3779H92.1127C92.7411 25.3779 93.1984 25.5244 93.4806 25.8133C93.7627 26.1021 93.9037 26.5547 93.9037 27.1669V27.6669C93.9037 28.4817 93.6515 28.9774 93.13 29.1886L93.0745 29.2145L92.8778 29.2878L93.1386 29.3869C93.4207 29.4732 93.6173 29.6413 93.7327 29.9086C93.8524 30.1844 93.9166 30.5595 93.9166 31.0251V32.4606C93.9166 32.6977 93.9251 32.8917 93.9422 33.0339C93.955 33.1417 93.9764 33.2495 94.0149 33.3572H92.9206H92.9163ZM91.4074 28.8783H91.9631C92.2409 28.8783 92.4547 28.8007 92.6 28.6541C92.7453 28.5032 92.818 28.2618 92.818 27.9256V27.2962C92.818 26.9772 92.7624 26.7487 92.6427 26.5978C92.5188 26.4426 92.3307 26.3651 92.0785 26.3651H91.4074V28.8826V28.8783Z" fill="white"/>
<path d="M69.3893 33.3572L69.1713 31.7579H67.5555L67.3247 33.3572H66.333L67.6197 25.3779H69.1884L70.475 33.3572H69.3893ZM67.6795 30.8354H69.0345L68.4446 26.6194H68.2608L67.6838 30.8354H67.6795Z" fill="white"/>
<path d="M101.631 33.3572L101.413 31.7579H99.7977L99.5669 33.3572H98.5752L99.8618 25.3779H101.431L102.717 33.3572H101.631ZM99.9217 30.8354H101.277L100.687 26.6194H100.503L99.926 30.8354H99.9217Z" fill="white"/>
<path d="M74.0869 33.3572L72.3728 26.8392L72.3771 33.3572H71.4238V25.3779H72.8558L74.2792 30.8311V25.3779H75.2325V33.3572H74.0869Z" fill="white"/>
<path d="M117.264 33.3572L115.55 26.8392L115.554 33.3572H114.601V25.3779H116.037L117.456 30.8311V25.3779H118.409V33.3572H117.264Z" fill="white"/>
<path d="M78.0624 33.4736C77.4768 33.4736 77.0279 33.3055 76.733 32.9736C76.4338 32.6416 76.2842 32.1459 76.2842 31.5122V31.1372H77.3058V31.607C77.3058 32.3356 77.7119 32.4908 78.0538 32.4908C78.2975 32.4908 78.4856 32.4175 78.6138 32.2666C78.742 32.12 78.8062 31.8959 78.8062 31.5812C78.8062 31.2234 78.7249 30.9044 78.5625 30.6285C78.4044 30.3612 78.1094 30.0379 77.6905 29.6672C77.1776 29.2102 76.8142 28.7921 76.6133 28.4256C76.4124 28.0635 76.3141 27.6497 76.3141 27.1927C76.3141 26.5763 76.468 26.0892 76.7758 25.7572C77.0792 25.4253 77.5323 25.2572 78.118 25.2572C78.7036 25.2572 79.1396 25.4253 79.4302 25.7572C79.7252 26.0935 79.8748 26.5849 79.8748 27.2186V27.4643H78.8532V27.1367C78.8532 26.8349 78.7933 26.6108 78.6694 26.4642C78.5454 26.3133 78.3616 26.24 78.1265 26.24C77.7931 26.24 77.3998 26.3909 77.3998 27.1151C77.3998 27.4255 77.4853 27.723 77.652 27.9902C77.8145 28.2575 78.1009 28.5679 78.5326 28.9429C79.0541 29.3999 79.4174 29.818 79.6098 30.1845C79.8021 30.5509 79.9004 30.9863 79.9004 31.482C79.9004 32.1243 79.7423 32.6201 79.4345 32.9606C79.1268 33.2969 78.6694 33.4693 78.0752 33.4693L78.0624 33.4736Z" fill="white"/>
<path d="M80.9385 33.3572V25.3779H82.721C83.3237 25.3779 83.781 25.5417 84.076 25.8607C84.3752 26.184 84.5248 26.6711 84.5248 27.3005V28.1066C84.5248 28.7403 84.3752 29.2231 84.076 29.5464C83.781 29.8654 83.3237 30.0293 82.721 30.0293H82.0285V33.3529H80.9385V33.3572ZM82.0285 29.0507H82.721C82.9561 29.0507 83.1356 28.9817 83.2553 28.8438C83.375 28.7101 83.4348 28.4946 83.4348 28.1885V27.2186C83.4348 26.9125 83.375 26.697 83.2553 26.5633C83.1356 26.4254 82.9518 26.3564 82.721 26.3564H82.0285V29.0464V29.0507Z" fill="white"/>
<path d="M87.2867 33.4736C86.6925 33.4736 86.2309 33.3055 85.9188 32.9649C85.6068 32.6244 85.4443 32.1373 85.4443 31.5122V27.2229C85.4443 26.5978 85.6025 26.1064 85.9188 25.7702C86.2309 25.4339 86.6925 25.2615 87.2867 25.2615C87.8808 25.2615 88.3425 25.4339 88.6545 25.7702C88.9666 26.1107 89.129 26.5978 89.129 27.2229V31.5122C89.129 32.1373 88.9708 32.6287 88.6545 32.9649C88.3425 33.3012 87.8851 33.4736 87.2867 33.4736ZM87.2867 26.2443C86.9447 26.2443 86.5386 26.3995 86.5386 27.141V31.5941C86.5386 32.3356 86.9447 32.4907 87.2867 32.4907C87.6286 32.4907 88.0347 32.3356 88.0347 31.5941V27.141C88.0347 26.3995 87.6286 26.2443 87.2867 26.2443Z" fill="white"/>
<path d="M96.0706 33.3572V26.3607H94.7412V25.3779H98.49V26.3607H97.1606V33.3572H96.0706Z" fill="white"/>
<path d="M104.128 33.3572V26.3607H102.799V25.3779H106.548V26.3607H105.218V33.3572H104.128Z" fill="white"/>
<path d="M108.573 25.3779H107.483V33.3572H108.573V25.3779Z" fill="white"/>
<path d="M111.587 33.4736C110.993 33.4736 110.532 33.3055 110.22 32.9649C109.908 32.6244 109.745 32.1373 109.745 31.5122V27.2229C109.745 26.5978 109.903 26.1064 110.22 25.7702C110.532 25.4339 110.993 25.2615 111.587 25.2615C112.182 25.2615 112.643 25.4339 112.955 25.7702C113.267 26.1107 113.43 26.5978 113.43 27.2229V31.5122C113.43 32.1373 113.272 32.6287 112.955 32.9649C112.643 33.3012 112.186 33.4736 111.587 33.4736ZM111.587 26.2443C111.245 26.2443 110.839 26.3995 110.839 27.141V31.5941C110.839 32.3356 111.245 32.4907 111.587 32.4907C111.929 32.4907 112.335 32.3356 112.335 31.5941V27.141C112.335 26.3995 111.929 26.2443 111.587 26.2443Z" fill="white"/>
<path d="M72.1241 13.5403V22.5715H62.9424C58.5567 22.5715 55.0088 18.9935 55.0088 14.5706C55.0088 10.1477 58.578 6.54816 62.9637 6.54816L72.1198 6.56971V11.9108L62.9637 11.8634C61.4847 11.8634 60.2793 13.1006 60.2793 14.5706C60.2793 16.0406 61.4847 17.252 62.9637 17.252H66.8236V13.5403H72.1198H72.1241Z" fill="white"/>
<path d="M85.7306 22.5758H74.1338V6.52661H79.43V17.2304H85.7306V22.5715V22.5758Z" fill="white"/>
<path d="M140 6.53955V10.665H131.006V12.842H139.795V16.282H131.006V18.459H140V22.5845H125.663V6.53955H140Z" fill="white"/>
<path d="M121.914 14.2085C122.94 13.6395 123.696 12.3161 123.696 10.9064C123.696 7.49655 120.982 6.52661 118.554 6.52661H106.829V22.5715H118.567C121.106 22.5715 123.885 21.7395 123.885 17.9848C123.885 16.2605 123.137 14.8077 121.91 14.2085H121.914ZM112.219 10.4667H116.272C117.597 10.4667 117.639 11.2513 117.639 11.5832C117.639 11.9152 117.597 12.6997 116.25 12.6997H112.219V10.4667ZM116.669 18.4418H112.177V16.1053H116.648C118.058 16.1053 118.101 16.9071 118.101 17.2735C118.101 17.6399 118.054 18.4418 116.669 18.4418Z" fill="white"/>
<path d="M97.6479 6.54816H93.9803C89.5946 6.54816 86.0254 10.1477 86.0254 14.5706C86.0254 18.9935 89.5733 22.5715 93.959 22.5715H97.6265C102.012 22.5715 105.581 18.972 105.581 14.5491C105.581 10.1261 102.034 6.54816 97.6479 6.54816ZM97.6265 17.252H93.9803C92.5013 17.252 91.2959 16.0363 91.2959 14.5706C91.2959 13.1049 92.5013 11.8634 93.9803 11.8634H97.6265C99.1055 11.8634 100.311 13.0791 100.311 14.5448C100.311 16.0104 99.1055 17.252 97.6265 17.252Z" fill="white"/>
</g>
<defs>
<clipPath id="clip0_37_1409">
<rect width="140" height="38" fill="white"/>
</clipPath>
</defs>
</svg>
