<svg xmlns="http://www.w3.org/2000/svg" width="345" height="92" viewBox="0 0 345 92" fill="none">
  <path d="M46.6222 45.9948C46.6222 47.9151 46.875 49.7833 47.3912 51.5471L0 47.122V44.8676L47.3912 40.4424C46.8855 42.2062 46.6222 44.0849 46.6222 45.9948Z" fill="#0A509B"/>
  <path d="M19.9719 85.237L109.003 80.3735V92L19.9719 87.1365V85.237Z" fill="#0A509B"/>
  <path d="M19.9719 4.85309L109.003 0V11.6161L19.9719 6.76302V4.85309Z" fill="#0A509B"/>
  <path d="M7.72014 18.2539L109.002 13.3904V25.017L7.72014 20.1534V18.2539Z" fill="#0A509B"/>
  <path d="M7.72014 71.8362L109.002 66.9831V78.5992L7.72014 73.7461V71.8362Z" fill="#0A509B"/>
  <path d="M67.7221 45.0346L109.004 40.1815V51.7976L67.7221 46.9445V45.0346Z" fill="#0A509B"/>
  <path d="M67.7107 58.4458L108.971 53.3631L109.034 64.9792L67.7318 60.3453L67.7107 58.4458Z" fill="#0A509B"/>
  <path d="M57.0388 27.3548L1.80008 31.7278L1.82115 33.4603L48.7804 36.8105C50.6133 33.095 53.5311 30.0057 57.1337 27.9288L57.0388 27.3548Z" fill="#0A509B"/>
  <path d="M56.47 63.6642C53.0887 61.5456 50.3499 58.5189 48.6435 54.8973L1.80008 58.5189V60.2723L56.3015 64.0921L56.4595 63.6642H56.47Z" fill="#0A509B"/>
  <path d="M144.154 80.7596V63.8208H140.878V61.4412H150.116V63.8208H146.84V80.7596H144.154Z" fill="#0A509B"/>
  <path d="M158.826 80.7596C158.742 80.5091 158.689 80.2691 158.658 80.0499C158.626 79.7785 158.605 79.2776 158.605 78.5574V74.9463C158.605 73.9861 158.447 73.3182 158.11 72.9112C157.773 72.5041 157.204 72.2954 156.414 72.2954H155.108V80.7596H152.422V61.4412H156.846C158.395 61.4412 159.522 61.796 160.217 62.4953C160.912 63.1945 161.26 64.2904 161.26 65.7724V66.9831C161.26 68.9556 160.638 70.1559 159.353 70.6673L159.216 70.7299L158.732 70.9073L159.374 71.1473C160.069 71.3561 160.554 71.7631 160.838 72.4102C161.133 73.0781 161.291 73.9861 161.291 75.1133V78.5888C161.291 79.1628 161.312 79.6324 161.355 79.9768C161.386 80.2378 161.439 80.4987 161.534 80.7596H158.826ZM155.108 69.9158H156.477C157.162 69.9158 157.689 69.728 158.047 69.3731C158.405 69.0078 158.584 68.4234 158.584 67.6093V66.0855C158.584 65.3132 158.447 64.7601 158.152 64.3948C157.847 64.019 157.383 63.8312 156.762 63.8312H155.108V69.9262V69.9158Z" fill="#0A509B"/>
  <path d="M228.972 80.7596C228.888 80.5091 228.835 80.2691 228.803 80.0499C228.772 79.7785 228.751 79.2776 228.751 78.5574V74.9463C228.751 73.9861 228.593 73.3182 228.256 72.9112C227.919 72.5041 227.35 72.2954 226.56 72.2954H225.254V80.7596H222.567V61.4412H226.992C228.54 61.4412 229.667 61.796 230.362 62.4953C231.058 63.1945 231.405 64.2904 231.405 65.7724V66.9831C231.405 68.9556 230.784 70.1559 229.499 70.6673L229.362 70.7299L228.877 70.9073L229.52 71.1473C230.215 71.3561 230.699 71.7631 230.984 72.4102C231.279 73.0781 231.437 73.9861 231.437 75.1133V78.5888C231.437 79.1628 231.458 79.6324 231.5 79.9768C231.532 80.2378 231.584 80.4987 231.679 80.7596H228.972ZM225.254 69.9158H226.623C227.308 69.9158 227.834 69.728 228.192 69.3731C228.551 69.0078 228.73 68.4234 228.73 67.6093V66.0855C228.73 65.3132 228.593 64.7601 228.298 64.3948C227.992 64.019 227.529 63.8312 226.907 63.8312H225.254V69.9262V69.9158Z" fill="#0A509B"/>
  <path d="M170.995 80.7596L170.457 76.8876H166.476L165.907 80.7596H163.463L166.634 61.4412H170.5L173.67 80.7596H170.995ZM166.781 74.6541H170.12L168.667 64.4469H168.214L166.792 74.6541H166.781Z" fill="#0A509B"/>
  <path d="M250.449 80.7596L249.911 76.8876H245.93L245.361 80.7596H242.917L246.088 61.4412H249.954L253.124 80.7596H250.449ZM246.235 74.6541H249.574L248.121 64.4469H247.668L246.246 74.6541H246.235Z" fill="#0A509B"/>
  <path d="M182.571 80.7596L178.347 64.9792L178.357 80.7596H176.008V61.4412H179.537L183.045 74.6437V61.4412H185.394V80.7596H182.571Z" fill="#0A509B"/>
  <path d="M288.971 80.7596L284.747 64.9792L284.758 80.7596H282.409V61.4412H285.948L289.445 74.6437V61.4412H291.794V80.7596H288.971Z" fill="#0A509B"/>
  <path d="M192.368 81.0414C190.925 81.0414 189.818 80.6344 189.092 79.8307C188.354 79.0271 187.986 77.8269 187.986 76.2927V75.3847H190.503V76.5223C190.503 78.2861 191.504 78.6618 192.347 78.6618C192.947 78.6618 193.41 78.4844 193.727 78.1191C194.043 77.7643 194.201 77.2215 194.201 76.4597C194.201 75.5934 194 74.8211 193.6 74.1531C193.21 73.5061 192.484 72.7233 191.451 71.8258C190.187 70.7195 189.292 69.7071 188.797 68.82C188.302 67.9433 188.059 66.9414 188.059 65.8351C188.059 64.3426 188.439 63.1632 189.197 62.3596C189.945 61.556 191.061 61.1489 192.505 61.1489C193.948 61.1489 195.022 61.556 195.738 62.3596C196.465 63.1737 196.834 64.3635 196.834 65.8977V66.4926H194.316V65.6994C194.316 64.9688 194.169 64.4261 193.863 64.0712C193.558 63.706 193.105 63.5285 192.526 63.5285C191.704 63.5285 190.735 63.8938 190.735 65.6472C190.735 66.3986 190.946 67.1188 191.356 67.7659C191.757 68.4129 192.462 69.1644 193.526 70.0724C194.811 71.1787 195.707 72.191 196.181 73.0782C196.655 73.9653 196.897 75.0194 196.897 76.2196C196.897 77.7747 196.507 78.9749 195.749 79.7994C194.991 80.6135 193.863 81.031 192.399 81.031L192.368 81.0414Z" fill="#0A509B"/>
  <path d="M199.455 80.7596V61.4412H203.848C205.333 61.4412 206.46 61.8378 207.187 62.6101C207.924 63.3928 208.293 64.5722 208.293 66.096V68.0476C208.293 69.5818 207.924 70.7507 207.187 71.5335C206.46 72.3058 205.333 72.7024 203.848 72.7024H202.141V80.7492H199.455V80.7596ZM202.141 70.3333H203.848C204.427 70.3333 204.869 70.1663 205.164 69.8323C205.459 69.5088 205.607 68.9869 205.607 68.2459V65.8977C205.607 65.1566 205.459 64.6348 205.164 64.3113C204.869 63.9773 204.417 63.8103 203.848 63.8103H202.141V70.3333Z" fill="#0A509B"/>
  <path d="M215.098 81.0414C213.634 81.0414 212.496 80.6344 211.728 79.8099C210.959 78.9854 210.558 77.806 210.558 76.2927V65.9081C210.558 64.3948 210.948 63.205 211.728 62.3909C212.496 61.5769 213.634 61.1594 215.098 61.1594C216.562 61.1594 217.7 61.5769 218.469 62.3909C219.238 63.2154 219.638 64.3948 219.638 65.9081V76.2927C219.638 77.806 219.249 78.9958 218.469 79.8099C217.7 80.6239 216.573 81.0414 215.098 81.0414ZM215.098 63.539C214.256 63.539 213.255 63.9147 213.255 65.7098V76.491C213.255 78.2861 214.256 78.6618 215.098 78.6618C215.941 78.6618 216.942 78.2861 216.942 76.491V65.7098C216.942 63.9147 215.941 63.539 215.098 63.539Z" fill="#0A509B"/>
  <path d="M236.745 80.7596V63.8208H233.469V61.4412H242.707V63.8208H239.431V80.7596H236.745Z" fill="#0A509B"/>
  <path d="M256.601 80.7596V63.8208H253.325V61.4412H262.563V63.8208H259.287V80.7596H256.601Z" fill="#0A509B"/>
  <path d="M267.556 61.4412H264.869V80.7596H267.556V61.4412Z" fill="#0A509B"/>
  <path d="M274.982 81.0414C273.518 81.0414 272.381 80.6344 271.612 79.8099C270.843 78.9854 270.442 77.806 270.442 76.2927V65.9081C270.442 64.3948 270.832 63.205 271.612 62.3909C272.381 61.5769 273.518 61.1594 274.982 61.1594C276.447 61.1594 277.584 61.5769 278.353 62.3909C279.122 63.2154 279.522 64.3948 279.522 65.9081V76.2927C279.522 77.806 279.133 78.9958 278.353 79.8099C277.584 80.6239 276.457 81.0414 274.982 81.0414ZM274.982 63.539C274.14 63.539 273.139 63.9147 273.139 65.7098V76.491C273.139 78.2861 274.14 78.6618 274.982 78.6618C275.825 78.6618 276.826 78.2861 276.826 76.491V65.7098C276.826 63.9147 275.825 63.539 274.982 63.539Z" fill="#0A509B"/>
  <path d="M177.734 32.7818V54.6469H155.108C144.3 54.6469 135.557 45.9843 135.557 35.2762C135.557 24.5681 144.353 15.8534 155.161 15.8534L177.724 15.9056V28.8368L155.161 28.722C151.516 28.722 148.545 31.7173 148.545 35.2762C148.545 38.8352 151.516 41.7679 155.161 41.7679H164.673V32.7818H177.734Z" fill="#0A509B"/>
  <path d="M211.265 54.6573H182.687V15.8013H195.738V41.7157H211.265V54.6573Z" fill="#0A509B"/>
  <path d="M345 15.8326V25.8205H322.837V31.0911H344.494V39.4196H322.837V44.6902H345V54.6782H309.67V15.8326H345Z" fill="#0A509B"/>
  <path d="M300.431 34.3996C302.959 33.0219 304.823 29.8178 304.823 26.405C304.823 18.1495 298.135 15.8013 292.151 15.8013H263.257V54.6469H292.183C298.44 54.6469 305.287 52.6326 305.287 43.5422C305.287 39.3675 303.444 35.8503 300.42 34.3996H300.431ZM276.54 25.3405H286.526C289.792 25.3405 289.897 27.24 289.897 28.0436C289.897 28.8472 289.792 30.7467 286.474 30.7467H276.54V25.3405ZM287.506 44.6485H276.435V38.9917H287.453C290.929 38.9917 291.035 40.933 291.035 41.8201C291.035 42.7072 290.919 44.6485 287.506 44.6485Z" fill="#0A509B"/>
  <path d="M240.632 15.8534H231.594C220.787 15.8534 211.991 24.5681 211.991 35.2762C211.991 45.9843 220.734 54.6469 231.541 54.6469H240.579C251.387 54.6469 260.183 45.9322 260.183 35.2241C260.183 24.5159 251.44 15.8534 240.632 15.8534ZM240.579 41.7679H231.594C227.949 41.7679 224.979 38.8247 224.979 35.2762C224.979 31.7277 227.949 28.722 231.594 28.722H240.579C244.224 28.722 247.195 31.6651 247.195 35.2136C247.195 38.7621 244.224 41.7679 240.579 41.7679Z" fill="#0A509B"/>
</svg>