<svg width="283" height="51" viewBox="0 0 283 51" fill="none" xmlns="http://www.w3.org/2000/svg">
<g clip-path="url(#clip0_37_1606)">
<path d="M20.309 12.1388L26.2073 9.3948V20.8215L27.5537 21.4464L28.9001 20.8215V9.3948L34.802 12.1388L36.1485 10.2581L27.5537 6.26416L18.959 10.2581L20.309 12.1388Z" fill="#00A3E0"/>
<path d="M16.8074 37.2331L10.9091 34.492L23.1966 28.7801V27.5273L21.8465 26.8994L9.56267 32.6113V27.1261H6.86621V35.117L15.4609 39.1138L16.8074 37.2331Z" fill="#00A3E0"/>
<path d="M27.5569 0L0.123047 12.7551V38.2478L27.5569 50.9971L54.9907 38.2478V12.7551L27.5569 0ZM52.2835 36.995L27.5569 48.5089L2.82311 36.995V14.0021L27.5569 2.50276L52.2835 14.0021V36.995Z" fill="#00A3E0"/>
<path d="M38.2996 13.7664L44.1979 16.5076L27.5535 24.2484L10.9091 16.5076L16.8074 13.7664L15.4609 11.8857L6.86621 15.8826V23.8734H9.56267V18.3883L26.2071 26.1262V41.605L20.3088 38.861L18.9588 40.7417L27.5535 44.7356L36.1482 40.7417L34.8018 38.861L28.8999 41.605V26.1262L45.5479 18.3883V23.8734H48.2408V15.8826L39.646 11.8857L38.2996 13.7664Z" fill="#00A3E0"/>
<path d="M45.548 27.1261V32.6113L33.2605 26.8994L31.9141 27.5244V28.7801L44.1979 34.492L38.2997 37.2331L39.6461 39.1138L48.2408 35.117V27.1261H45.548Z" fill="#00A3E0"/>
<path d="M52.6377 41.291H53.3849C53.8506 41.291 54.0816 41.4451 54.0816 41.7474C54.0877 41.8064 54.0772 41.8658 54.051 41.9212C54.0247 41.9765 53.9834 42.0264 53.93 42.0671C53.8255 42.1328 53.7006 42.174 53.569 42.1863L54.1393 42.8927H53.8145L53.2766 42.2038H52.9517V42.8927H52.6521L52.6377 41.291ZM52.9373 42.0061H53.2477H53.4463C53.5044 42.002 53.5616 41.9912 53.6159 41.9741C53.6637 41.957 53.704 41.9286 53.7314 41.8927C53.7664 41.8476 53.7829 41.7947 53.7784 41.7416C53.7799 41.6959 53.7662 41.6507 53.7387 41.6108C53.7111 41.5797 53.6754 41.5538 53.634 41.5352C53.5878 41.5194 53.5393 41.5086 53.4896 41.5032C53.4379 41.5002 53.386 41.5002 53.3344 41.5032H52.9373V42.0061Z" fill="#00A3E0"/>
<path d="M53.2841 43.7157C52.8858 43.7151 52.4968 43.6195 52.166 43.4409C51.8352 43.2623 51.5776 43.0088 51.4257 42.7124C51.2738 42.4159 51.2345 42.0899 51.3126 41.7755C51.3907 41.461 51.5828 41.1723 51.8647 40.9457C52.1465 40.7192 52.5054 40.565 52.896 40.5026C53.2867 40.4403 53.6915 40.4726 54.0593 40.5954C54.4271 40.7183 54.7415 40.9262 54.9627 41.1928C55.1838 41.4595 55.3019 41.773 55.3019 42.0937C55.3009 42.5241 55.0879 42.9367 54.7096 43.2408C54.3313 43.5449 53.8186 43.7157 53.2841 43.7157ZM53.2841 40.7449C52.9529 40.7455 52.6295 40.8251 52.3545 40.9736C52.0795 41.1222 51.8654 41.333 51.7392 41.5795C51.613 41.826 51.5803 42.0971 51.6454 42.3586C51.7104 42.62 51.8702 42.8601 52.1046 43.0484C52.339 43.2368 52.6374 43.3649 52.9622 43.4167C53.287 43.4685 53.6236 43.4417 53.9295 43.3395C54.2353 43.2373 54.4967 43.0644 54.6805 42.8427C54.8644 42.621 54.9626 42.3603 54.9626 42.0937C54.9626 41.9163 54.9191 41.7407 54.8347 41.5769C54.7503 41.413 54.6266 41.2642 54.4707 41.1389C54.3148 41.0136 54.1297 40.9144 53.9261 40.8467C53.7225 40.7791 53.5043 40.7445 53.2841 40.7449Z" fill="#00A3E0"/>
<path d="M85.2013 31.9895C84.2519 33.0185 82.6095 34.4312 80.5628 34.4312H75.9929C75.1928 34.4172 74.4113 34.2348 73.726 33.9022C72.7081 33.3206 71.8082 32.6156 71.0584 31.8122C70.6605 31.3124 70.4569 30.7284 70.4736 30.1349V20.8651C70.4584 20.2809 70.6622 19.7065 71.0584 19.217C71.4988 18.717 72.9607 17.4525 73.726 17.0979C74.4182 16.7782 75.1956 16.5968 75.9929 16.5688H80.5628C82.6095 16.5688 84.2519 18.0223 85.2013 19.0106C85.484 19.3413 85.7408 19.6859 85.9701 20.0425L82.2413 20.8942C82.2413 20.8942 81.1584 19.8041 80.5989 19.5396C80.5551 19.5165 80.5029 19.5062 80.4509 19.5105H76.1409C76.0895 19.5116 76.0391 19.5215 75.9929 19.5396C75.341 19.8777 74.7811 20.3188 74.3468 20.836C74.317 20.9418 74.3048 21.0503 74.3107 21.1587V30.1059C74.3107 30.4605 75.4442 31.225 75.9929 31.4604C76.029 31.4895 76.2131 31.4895 76.2492 31.4895H80.4148C80.4781 31.4913 80.5411 31.4813 80.5989 31.4604C81.3641 31.1698 82.2413 30.0768 82.2413 30.0768L85.9701 30.8704C85.7696 31.2665 85.5115 31.6422 85.2013 31.9895Z" fill="#101820"/>
<path d="M89.334 34.2858V30.5767H93.8281V34.2858H89.334Z" fill="#101820"/>
<path d="M109.469 34.2858V27.0188H101.502V34.2858H97.665V16.6851H101.502V24.0742H109.469V16.6851H113.306V34.2858H109.469Z" fill="#101820"/>
<path d="M117.144 34.2858V30.5767H121.641V34.2858H117.144Z" fill="#101820"/>
<path d="M148.649 25.1323C148.066 25.7145 147.405 26.2429 146.678 26.7077C146.39 26.8835 146.07 27.0218 145.729 27.1176L150.061 34.3003H145.906L141.848 27.3531H137.654V34.3003H133.81V16.6851H144.079C145.006 16.6911 145.91 16.9165 146.678 17.3333C147.408 17.8129 148.07 18.3559 148.653 18.9524C149.083 19.4873 149.311 20.1114 149.31 20.7488V23.3358C149.315 23.9741 149.085 24.5994 148.649 25.1323ZM145.469 20.772C145.47 20.7021 145.458 20.6325 145.433 20.5657C145.213 20.2401 144.628 19.6529 144.263 19.6238H137.654V24.391H144.079C144.408 24.391 145.14 23.83 145.433 23.4201C145.455 23.3829 145.468 23.3423 145.469 23.301V20.772Z" fill="#101820"/>
<path d="M169.625 31.7831C169.152 32.2831 167.726 33.5504 166.957 33.9022C166.27 34.2311 165.49 34.4133 164.69 34.4312H159.139C158.339 34.4172 157.557 34.2348 156.872 33.9022C156.103 33.5504 154.641 32.2831 154.204 31.7831C153.805 31.2839 153.601 30.6995 153.619 30.1059V20.8942C153.601 20.3005 153.805 19.7161 154.204 19.217C154.641 18.717 156.103 17.4525 156.872 17.0979C157.557 16.7652 158.339 16.5829 159.139 16.5688H164.69C165.49 16.5868 166.27 16.7689 166.957 17.0979C167.726 17.4525 169.152 18.717 169.625 19.217C170.024 19.7161 170.228 20.3005 170.21 20.8942V30.1059C170.228 30.6995 170.024 31.2839 169.625 31.7831ZM157.456 30.0768C157.456 30.0768 157.456 30.164 157.493 30.1931C157.92 30.6957 158.466 31.1262 159.099 31.4604C159.157 31.4813 159.22 31.4913 159.283 31.4895H164.546C164.608 31.4892 164.669 31.4793 164.726 31.4604C165.36 31.1265 165.907 30.6959 166.336 30.1931C166.358 30.1568 166.371 30.1172 166.372 30.0768V20.9814C166.372 20.9814 166.372 20.8651 166.336 20.836C165.906 20.3261 165.36 19.8862 164.726 19.5396C164.67 19.5186 164.608 19.5086 164.546 19.5105H159.283C159.283 19.5105 159.139 19.5105 159.099 19.5396C158.472 19.8876 157.932 20.3273 157.507 20.836C157.484 20.8822 157.471 20.9315 157.471 20.9814L157.456 30.0768Z" fill="#101820"/>
<path d="M189.763 32.0476C189.194 32.635 188.544 33.1685 187.825 33.6376C187.044 34.0544 186.13 34.2796 185.193 34.2858H174.924V16.6851H185.193C186.136 16.6925 187.055 16.9285 187.829 17.3623C188.547 17.8315 189.198 18.3649 189.767 18.9524C190.194 19.4977 190.411 20.1332 190.388 20.7778V22.9551C190.388 24.1904 189.803 24.8387 188.944 25.516C189.785 26.1903 190.388 26.8095 190.388 28.0449V30.2831C190.401 30.908 190.183 31.522 189.763 32.0476ZM186.547 22.8969V20.8069C186.543 20.7565 186.53 20.7067 186.511 20.6587C186.183 20.1878 185.486 19.6297 185.157 19.6297H178.761V24.0742H185.193C185.522 24.0742 186.255 23.5422 186.511 23.1004C186.54 23.0353 186.553 22.966 186.547 22.8969ZM186.547 30.1639V28.0739C186.548 28.024 186.536 27.9744 186.511 27.9286C186.183 27.4577 185.486 26.9287 185.157 26.9287H178.761V31.3412H185.193C185.522 31.3412 186.255 30.8122 186.511 30.3703C186.535 30.3033 186.548 30.2338 186.547 30.1639Z" fill="#101820"/>
<path d="M195.575 34.2858V16.6851H199.412V34.2858H195.575Z" fill="#101820"/>
<path d="M216.443 34.2858L208.863 22.6004V34.2858H205.04V16.6851H209.17L216.663 28.5158V16.6851H220.5V34.2858H216.443Z" fill="#101820"/>
<path d="M241.148 31.7831C240.707 32.3121 239.246 33.5504 238.48 33.9022C237.786 34.218 237.01 34.3992 236.213 34.4312H229.857C227.691 34.4312 226.164 33.0185 225.215 31.9895C224.964 31.7009 224.744 31.3955 224.558 31.0767L228.167 30.1059C228.627 30.6119 229.167 31.0673 229.774 31.4604C229.856 31.4837 229.943 31.4936 230.03 31.4895H236.026C236.1 31.4923 236.173 31.4824 236.242 31.4604C236.791 31.225 237.888 30.3413 237.888 30.1059V28.3618C237.888 28.2519 237.846 28.1448 237.767 28.0552C237.688 27.9656 237.577 27.898 237.448 27.8618L227.947 25.6817C226.085 25.2718 225.095 23.8272 225.095 22.4842V20.8942C225.074 20.3043 225.265 19.7219 225.644 19.217C226.407 18.4037 227.32 17.6891 228.351 17.0979C229.042 16.7778 229.818 16.5963 230.615 16.5688H236.029C238.22 16.5688 239.718 18.0223 240.668 19.0106C240.952 19.3333 241.194 19.6792 241.39 20.0425L237.711 20.8942C237.267 20.3777 236.725 19.9206 236.105 19.5396C236.105 19.5396 236.069 19.5105 235.885 19.5105H230.734C230.659 19.5076 230.584 19.5175 230.514 19.5396C229.929 19.7751 228.94 20.6006 228.94 20.836V22.3069C228.933 22.4136 228.968 22.5192 229.04 22.609C229.112 22.6987 229.217 22.7679 229.34 22.8069L238.877 25.0451C240.744 25.455 241.729 26.9287 241.729 28.2426V30.0971C241.759 30.6942 241.556 31.2839 241.148 31.7831Z" fill="#101820"/>
<path d="M261.871 31.7831C261.395 32.2831 259.969 33.5504 259.204 33.9022C258.516 34.2311 257.736 34.4133 256.937 34.4312H251.382C250.582 34.4172 249.8 34.2348 249.115 33.9022C248.349 33.5504 246.887 32.2831 246.447 31.7831C246.049 31.2833 245.846 30.6994 245.862 30.1059V20.8942C245.846 20.3007 246.049 19.7167 246.447 19.217C246.887 18.717 248.349 17.4525 249.115 17.0979C249.8 16.7652 250.582 16.5829 251.382 16.5688H256.937C257.736 16.5868 258.516 16.7689 259.204 17.0979C259.969 17.4525 261.395 18.717 261.871 19.217C262.269 19.7167 262.473 20.3007 262.456 20.8942V30.1059C262.473 30.6994 262.269 31.2833 261.871 31.7831ZM249.699 30.0768C249.699 30.0768 249.699 30.164 249.735 30.1931C250.165 30.6953 250.712 31.1257 251.345 31.4604C251.402 31.4815 251.464 31.4914 251.526 31.4895H256.774C256.838 31.4893 256.9 31.4794 256.959 31.4604C257.596 31.1283 258.147 30.6987 258.579 30.196C258.603 30.1602 258.617 30.1204 258.619 30.0797V20.9814C258.619 20.9814 258.619 20.8651 258.579 20.836C258.15 20.3263 257.605 19.8864 256.973 19.5396C256.915 19.5182 256.852 19.5082 256.789 19.5105H251.526C251.526 19.5105 251.382 19.5105 251.345 19.5396C250.713 19.8871 250.167 20.3268 249.735 20.836C249.712 20.8822 249.7 20.9315 249.699 20.9814V30.0768Z" fill="#101820"/>
<path d="M278.574 34.2858L270.994 22.6004V34.2858H267.171V16.6851H271.3L278.794 28.5158V16.6851H282.631V34.2858H278.574Z" fill="#101820"/>
</g>
<defs>
<clipPath id="clip0_37_1606">
<rect width="282.5" height="51" fill="white" transform="translate(0.130859)"/>
</clipPath>
</defs>
</svg>
