<svg xmlns="http://www.w3.org/2000/svg" width="72" height="58" viewBox="0 0 72 58" fill="none">
<path d="M28.0473 15.1161C27.495 15.1161 27.0473 15.5638 27.0473 16.1161C27.0473 16.6684 27.495 17.1161 28.0473 17.1161V15.1161ZM44.9773 17.1161C45.5296 17.1161 45.9773 16.6684 45.9773 16.1161C45.9773 15.5638 45.5296 15.1161 44.9773 15.1161V17.1161ZM23.4055 51.9961C22.8532 51.9961 22.4055 52.4438 22.4055 52.9961C22.4055 53.5484 22.8532 53.9961 23.4055 53.9961V51.9961ZM49.6189 53.9961C50.1712 53.9961 50.6189 53.5484 50.6189 52.9961C50.6189 52.4438 50.1712 51.9961 49.6189 51.9961V53.9961ZM25.4331 16.6984H26.4331V15.6984H25.4331V16.6984ZM47.6155 16.6984V15.6984H46.6155V16.6984H47.6155ZM14 57H13V58H14V57ZM59 57V58H60V57H59ZM28.2107 35.8953C27.8785 35.4541 27.2515 35.3658 26.8103 35.698C26.3691 36.0303 26.2808 36.6572 26.613 37.0984L28.2107 35.8953ZM35.3101 48.6478C35.6423 49.089 36.2693 49.1773 36.7105 48.8451C37.1517 48.5128 37.24 47.8859 36.9078 47.4447L35.3101 48.6478ZM35.9941 47.4447C35.6619 47.8859 35.7502 48.5128 36.1914 48.8451C36.6326 49.1773 37.2596 49.089 37.5918 48.6478L35.9941 47.4447ZM46.2889 37.0984C46.6211 36.6572 46.5328 36.0303 46.0916 35.698C45.6504 35.3658 45.0234 35.4541 44.6912 35.8953L46.2889 37.0984ZM35.4269 56.8054C35.4269 57.3577 35.8746 57.8054 36.4269 57.8054C36.9792 57.8054 37.4269 57.3577 37.4269 56.8054H35.4269ZM37.4269 47.4398C37.4269 46.8875 36.9792 46.4398 36.4269 46.4398C35.8746 46.4398 35.4269 46.8875 35.4269 47.4398H37.4269ZM28.0473 17.1161H44.9773V15.1161H28.0473V17.1161ZM23.4055 53.9961H49.6189V51.9961H23.4055V53.9961ZM35.6187 7.42979V2.1889H33.6187V7.42979H35.6187ZM35.6187 2.1889C35.6187 2.09575 35.6521 2.03225 35.6773 2.00302C35.7017 1.97483 35.6945 2 35.6448 2V0C34.3994 0 33.6187 1.12251 33.6187 2.1889H35.6187ZM35.6448 2H37.3304V0H35.6448V2ZM37.3304 2C37.2808 2 37.2735 1.97483 37.2979 2.00302C37.3232 2.03225 37.3565 2.09575 37.3565 2.1889H39.3565C39.3565 1.1225 38.5758 0 37.3304 0V2ZM37.3565 2.1889V7.42979H39.3565V2.1889H37.3565ZM38.2868 3.15428C44.1845 4.00709 48.6921 9.03191 48.6921 15.0969H50.6921C50.6921 8.01123 45.4278 2.16608 38.573 1.17487L38.2868 3.15428ZM48.6921 15.0969C48.6921 15.5216 48.6697 15.9212 48.6251 16.3202L50.6127 16.5426C50.6657 16.0682 50.6921 15.5943 50.6921 15.0969H48.6921ZM24.4186 16.4034C24.3547 15.9805 24.3321 15.5715 24.3321 15.1212H22.3321C22.3321 15.6414 22.3583 16.1545 22.441 16.7021L24.4186 16.4034ZM24.3321 15.1212C24.3321 9.03339 28.8627 4.0073 34.7619 3.15428L34.4756 1.17487C27.6223 2.16586 22.3321 8.00976 22.3321 15.1212H24.3321ZM20.6204 17.6984H25.4331V15.6984H20.6204V17.6984ZM24.4331 16.6984C24.4331 18.907 26.2309 20.6828 28.438 20.6828V18.6828C27.3226 18.6828 26.4331 17.7896 26.4331 16.6984H24.4331ZM28.438 20.6828H44.6106V18.6828H28.438V20.6828ZM44.6106 20.6828C46.8177 20.6828 48.6155 18.907 48.6155 16.6984H46.6155C46.6155 17.7896 45.726 18.6828 44.6106 18.6828V20.6828ZM47.6155 17.6984H52.4526V15.6984H47.6155V17.6984ZM45.8338 18.9793V24.1232H47.8338V18.9793H45.8338ZM45.8338 24.1232C45.8338 29.2193 41.6692 33.3866 36.4999 33.3866V35.3866C42.7639 35.3866 47.8338 30.3337 47.8338 24.1232H45.8338ZM36.4999 33.3866C31.352 33.3866 27.1661 29.2405 27.1661 24.1232H25.1661C25.1661 30.3611 30.2635 35.3866 36.4999 35.3866V33.3866ZM27.1661 24.1232V18.7852H25.1661V24.1232H27.1661ZM33.9577 33.7068V33.0516H31.9577V33.7068H33.9577ZM33.9577 33.0516C33.9577 32.8582 34.1143 32.6929 34.3258 32.6929V30.6929C33.0226 30.6929 31.9577 31.7408 31.9577 33.0516H33.9577ZM34.3258 32.6929H38.7232V30.6929H34.3258V32.6929ZM38.7232 32.6929C38.9347 32.6929 39.0912 32.8582 39.0912 33.0516H41.0912C41.0912 31.7408 40.0263 30.6929 38.7232 30.6929V32.6929ZM39.0912 33.0516V33.8281H41.0912V33.0516H39.0912ZM29.7345 32.6396V34.9446H31.7345V32.6396H29.7345ZM29.7345 34.9446C29.7345 35.2594 29.4802 35.5217 29.1466 35.5217V37.5217C30.5719 37.5217 31.7345 36.3768 31.7345 34.9446H29.7345ZM29.1466 35.5217H27.4121V37.5217H29.1466V35.5217ZM27.4121 35.5217C19.464 35.5217 13 41.9318 13 49.8423H15C15 43.0492 20.5556 37.5217 27.4121 37.5217V35.5217ZM13 49.8423V57H15V49.8423H13ZM14 58H59V56H14V58ZM60 57V49.8423H58V57H60ZM60 49.8423C60 41.9318 53.5361 35.5217 45.5879 35.5217V37.5217C52.4444 37.5217 58 43.0492 58 49.8423H60ZM45.5879 35.5217H43.8779V37.5217H45.5879V35.5217ZM43.8779 35.5217C43.5442 35.5217 43.2899 35.2594 43.2899 34.9446H41.2899C41.2899 36.3768 42.4526 37.5217 43.8779 37.5217V35.5217ZM43.2899 34.9446V33.0763H41.2899V34.9446H43.2899ZM48.7656 37.0556V56.7332H50.7656V37.0556H48.7656ZM22.4543 37.0556V56.7332H24.4543V37.0556H22.4543ZM26.613 37.0984L35.3101 48.6478L36.9078 47.4447L28.2107 35.8953L26.613 37.0984ZM37.5918 48.6478L46.2889 37.0984L44.6912 35.8953L35.9941 47.4447L37.5918 48.6478ZM37.4269 56.8054V47.4398H35.4269V56.8054H37.4269Z" fill="#0A509B"/>
</svg>