<svg xmlns="http://www.w3.org/2000/svg" width="75" height="60" viewBox="0 0 75 60" fill="none">
<path d="M2 57.9014H63.7716L71.3747 42.9999M64.2552 42.3508L72.8198 42.1128C72.9194 42.1128 73 42.2019 73 42.3119V51.9125M18.0875 57.9014H12.8832C12.6464 57.9014 12.4525 57.6891 12.4525 57.4256V34.8762C12.4525 34.6145 12.6447 34.4003 12.8832 34.4003H18.0875C18.3243 34.4003 18.5182 34.6126 18.5182 34.8762V57.4274C18.5182 57.6891 18.326 57.9014 18.0875 57.9014ZM30.7594 57.9014H25.5551C25.3183 57.9014 25.1244 57.6891 25.1244 57.4256V2.47586C25.1244 2.21423 25.3166 2 25.5551 2H30.7594C30.9962 2 31.1901 2.21234 31.1901 2.47586V57.4274C31.1884 57.6891 30.9962 57.9014 30.7594 57.9014ZM43.1139 58H37.9096C37.6728 58 37.4789 57.7877 37.4789 57.5241V20.9245C37.4789 20.6629 37.6711 20.4486 37.9096 20.4486H43.1139C43.3507 20.4486 43.5446 20.661 43.5446 20.9245V57.5241C43.5429 57.7877 43.3507 58 43.1139 58ZM55.1509 57.9014H49.9466C49.7098 57.9014 49.5159 57.6891 49.5159 57.4256V8.8744C49.5159 8.61277 49.7081 8.39854 49.9466 8.39854H55.1509C55.3877 8.39854 55.5816 8.61087 55.5816 8.8744V57.4256C55.5816 57.6891 55.3894 57.9014 55.1509 57.9014Z" stroke="#0A509B" stroke-width="2.5" stroke-miterlimit="10" stroke-linecap="round"/>
</svg>