<svg xmlns="http://www.w3.org/2000/svg" width="63" height="56" viewBox="0 0 63 56" fill="none">
<path d="M44.084 22.4732V11.0686H51.1668C54.0013 11.0686 56.5561 12.778 57.6374 15.3982L60.2722 21.7824C60.408 22.1116 60.166 22.4732 59.81 22.4732H44.084Z" stroke="#0A509B" stroke-width="2"/>
<path d="M1 30.0768H44.0839" stroke="#0A509B" stroke-width="2" stroke-linecap="round" stroke-linejoin="round"/>
<path d="M47.8853 50.3506C52.0843 50.3506 55.4883 46.9466 55.4883 42.7476C55.4883 38.5485 52.0843 35.1445 47.8853 35.1445C43.6862 35.1445 40.2822 38.5485 40.2822 42.7476C40.2822 46.9466 43.6862 50.3506 47.8853 50.3506Z" stroke="#0A509B" stroke-width="2" stroke-linecap="round" stroke-linejoin="round"/>
<path d="M14.939 50.3506C19.138 50.3506 22.542 46.9466 22.542 42.7476C22.542 38.5485 19.138 35.1445 14.939 35.1445C10.7399 35.1445 7.33594 38.5485 7.33594 42.7476C7.33594 46.9466 10.7399 50.3506 14.939 50.3506Z" stroke="#0A509B" stroke-width="2" stroke-linecap="round" stroke-linejoin="round"/>
<path d="M40.2824 41.4808H22.542" stroke="#0A509B" stroke-width="2" stroke-linecap="round" stroke-linejoin="round"/>
<path d="M7.27251 41.4809H3.15419C2.58287 41.4809 2.03494 41.2472 1.63095 40.8314C1.22696 40.4155 1 39.8514 1 39.2633V8.21755C1 7.62942 1.22696 7.06538 1.63095 6.64951C2.03494 6.23363 2.58287 6 3.15419 6H44.0839V35.7152" stroke="#0A509B" stroke-width="2" stroke-linecap="round" stroke-linejoin="round"/>
<path d="M44.084 22.4729H61.8244V39.3685C61.8244 39.9287 61.5908 40.4659 61.1749 40.8619C60.759 41.258 60.195 41.4805 59.6069 41.4805H55.3301" stroke="#0A509B" stroke-width="2" stroke-linecap="round" stroke-linejoin="round"/>
<path d="M6.06836 21.6822L6.06836 11.0686" stroke="#0A509B" stroke-width="2" stroke-linecap="round" stroke-linejoin="round"/>
<path d="M28.8776 25.0079L39.4912 25.0079" stroke="#0A509B" stroke-width="2" stroke-linecap="round" stroke-linejoin="round"/>
<path d="M28.8782 46.427L32.6797 46.427" stroke="#0A509B" stroke-width="2" stroke-linecap="round" stroke-linejoin="round"/>
</svg>