<svg xmlns="http://www.w3.org/2000/svg" width="72" height="58" viewBox="0 0 72 58" fill="none">
<path d="M33.7471 16.5148V16.6462C35.678 14.9938 36.9206 12.5903 36.9206 9.86765C36.9206 6.48775 35.0089 3.55851 32.1986 2.01878V10.9379C32.1986 11.1257 32.0457 11.2759 31.8545 11.2759H23.5957C23.4045 11.2759 23.2515 11.1257 23.2515 10.9379V2C20.4412 3.53973 18.5295 6.46898 18.5295 9.84887C18.5295 12.5716 19.7721 14.975 21.703 16.6274L21.7031 20.6834M33.7471 19.1061V16.6275M21.8942 39.7612C22.1045 42.8406 24.5324 45 27.7251 45C31.0515 45 33.7471 42.3524 33.7471 39.0852V30.842M45.2757 39.7948L33.8044 39.8172M36.175 23.7065L33.728 25.8471C32.7721 26.6921 31.3 26.5982 30.4588 25.6594C29.5986 24.7205 29.6941 23.2746 30.65 22.4485L35.0471 18.6179C35.7544 17.9983 36.8441 18.017 37.5324 18.6742L45.753 26.448M24.7426 25.8845H19.1985C17.975 25.8845 17 24.9081 17 23.7251V23.4247C17 22.2229 17.9941 21.2653 19.1985 21.2653H24.7426C25.9662 21.2653 26.9412 22.2417 26.9412 23.4247V23.7251C26.9412 24.9081 25.9662 25.8845 24.7426 25.8845ZM24.7426 30.5226H19.1985C17.975 30.5226 17 29.5462 17 28.3632V28.0628C17 26.8611 17.9941 25.9034 19.1985 25.9034H24.7426C25.9662 25.9034 26.9412 26.8798 26.9412 28.0628V28.3632C26.9412 29.565 25.9662 30.5226 24.7426 30.5226ZM24.7426 35.1791H19.1985C17.975 35.1791 17 34.2027 17 33.0198V32.7193C17 31.5176 17.9941 30.5599 19.1985 30.5599H24.7426C25.9662 30.5599 26.9412 31.5364 26.9412 32.7193V33.0198C26.9412 34.2027 25.9662 35.1791 24.7426 35.1791ZM24.7426 39.8173H19.1985C17.975 39.8173 17 38.8408 17 37.6579V37.3574C17 36.1557 17.9941 35.1981 19.1985 35.1981H24.7426C25.9662 35.1981 26.9412 36.1745 26.9412 37.3574V37.6579C26.9412 38.8408 25.9662 39.8173 24.7426 39.8173ZM55.6559 42.4839H46.0779C45.8868 42.4839 45.7338 42.3337 45.7338 42.1459V24.1386C45.7338 23.9508 45.8868 23.8006 46.0779 23.8006H55.6559C55.8471 23.8006 56 23.9508 56 24.1386V42.1459C56 42.3149 55.8471 42.4839 55.6559 42.4839Z" stroke="#0A509B" stroke-width="2" stroke-miterlimit="10" stroke-linecap="round"/>
</svg>